<svg width="40" height="40" viewBox="0 0 40 40" xmlns="http://www.w3.org/2000/svg">
  <defs>
    <filter id="dinoGlow">
      <feGaussianBlur stdDeviation="2" result="coloredBlur"/>
      <feMerge>
        <feMergeNode in="coloredBlur"/>
        <feMergeNode in="SourceGraphic"/>
      </feMerge>
    </filter>
  </defs>
  
  <!-- Dino body -->
  <path d="M 10 25 L 10 20 Q 10 12 15 10 L 18 8 L 20 10 L 22 8 L 24 10 L 26 8 L 28 12 Q 32 14 32 20 L 32 28 L 28 28 L 28 32 L 24 32 L 24 28 L 16 28 L 16 32 L 12 32 L 12 28 Z" 
        fill="#10b981" stroke="#34d399" stroke-width="2" filter="url(#dinoGlow)" />
  
  <!-- Eye -->
  <circle cx="25" cy="18" r="2.5" fill="#022c22" />
  <circle cx="25" cy="18" r="1" fill="#34d399" />
  
  <!-- Teeth -->
  <path d="M 12 25 L 14 28 L 16 25" stroke="#34d399" stroke-width="1.5" fill="none" />
  <path d="M 18 25 L 20 28 L 22 25" stroke="#34d399" stroke-width="1.5" fill="none" />
</svg>
